{"title":"No.One.Lives.2012.480p.BRRip.x264-Fastbet99","uid":8768464,"size":845234646,"categoryP":"video","categoryS":"movies","magnet":"?xt=urn:btih:0377714570fe77cdcebb122069c7b2783ab67d2e&amp;dn=No.One.Lives.2012.480p.BRRip.x264-Fastbet99&amp;tr=udp%3A%2F%2Ftracker.openbittorrent.com%3A80&amp;tr=udp%3A%2F%2Fopen.demonii.com%3A1337&amp;tr=udp%3A%2F%2Ftracker.coppersurfer.tk%3A6969&amp;tr=udp%3A%2F%2Fexodus.desync.com%3A6969","seeders":1,"leechers":0,"uploader":"Fastbet99","files":-1,"time":1375391077,"description":"No One Lives (2012)\n\nIMDB Info\t\t\t\t : http://www.imdb.com/title/tt1763264/\n\nSource\t\t\t\t\t : 720p-PublicHD (Thanks)\nComplete name                            : No.One.Lives.2012.480p.BRRip.x264-Fastbet99.mp4\nFormat                                   : MPEG-4\nFormat profile                           : Base Media\nCodec ID                                 : isom\nFile size                                : 806 MiB\nDuration                                 : 1h 26mn\nOverall bit rate mode                    : Variable\nOverall bit rate                         : 1 304 Kbps\n\nVideo\nID                                       : 1\nFormat                                   : AVC\nFormat/Info                              : Advanced Video Codec\nFormat profile                           : &lt;a class=&quot;__cf_email__&quot; href=&quot;/cdn-cgi/l/email-protection&quot; data-cfemail=&quot;6921000e0129255d4758&quot;&gt;[email&amp;#160;protected]&lt;/a&gt;&lt;script cf-hash='f9e31' type=&quot;text/javascript&quot;&gt;\n/* &lt;![CDATA[ */!function(){try{var t=&quot;currentScript&quot;in document?document.currentScript:function(){for(var t=document.getElementsByTagName(&quot;script&quot;),e=t.length;e--;)if(t[e].getAttribute(&quot;cf-hash&quot;))return t[e]}();if(t&amp;&amp;t.previousSibling){var e,r,n,i,c=t.previousSibling,a=c.getAttribute(&quot;data-cfemail&quot;);if(a){for(e=&quot;&quot;,r=parseInt(a.substr(0,2),16),n=2;a.length-n;n+=2)i=parseInt(a.substr(n,2),16)^r,e+=String.fromCharCode(i);e=document.createTextNode(e),c.parentNode.replaceChild(e,c)}}}catch(u){}}();/* ]]&gt; */&lt;/script&gt;\nFormat settings, CABAC                   : Yes\nFormat settings, ReFrames                : 4 frames\nCodec ID                                 : avc1\nCodec ID/Info                            : Advanced Video Coding\nDuration                                 : 1h 26mn\nBit rate                                 : 1 196 Kbps\nMaximum bit rate                         : 7 150 Kbps\nWidth                                    : 854 pixels\nHeight                                   : 352 pixels\nDisplay aspect ratio                     : 2.40:1\nFrame rate mode                          : Constant\nFrame rate                               : 23.976 fps\nColor space                              : YUV\nChroma subsampling                       : 4:2:0\nBit depth                                : 8 bits\nScan type                                : Progressive\nBits/(Pixel*Frame)                       : 0.166\nStream size                              : 739 MiB (92%)\nWriting library                          : x264 core 133 r2334 a3ac64b\n\nAudio\nID                                       : 2\nFormat                                   : AAC\nFormat/Info                              : Advanced Audio Codec\nFormat profile                           : LC\nCodec ID                                 : 40\nDuration                                 : 1h 26mn\nBit rate mode                            : Variable\nBit rate                                 : 96.0 Kbps\nMaximum bit rate                         : 134 Kbps\nChannel(s)                               : 2 channels\nChannel positions                        : Front: L R\nSampling rate                            : 48.0 KHz\nCompression mode                         : Lossy\nStream size                              : 59.2 MiB (7%)\nLanguage                                 : English\n\nText #1\nID                                       : 3\nFormat                                   : mp4s\nCodec ID                                 : E0\nDuration                                 : 1h 24mn\nBit rate mode                            : Variable\nBit rate                                 : 5 104 bps\nMaximum bit rate                         : 65.1 Kbps\nStream size                              : 3.09 MiB (0%)\nLanguage                                 : English\n\nText #2\nID                                       : 4\nFormat                                   : mp4s\nCodec ID                                 : E0\nDuration                                 : 1h 19mn\nBit rate mode                            : Variable\nBit rate                                 : 4 216 bps\nMaximum bit rate                         : 62.1 Kbps\nStream size                              : 2.40 MiB (0%)\nLanguage                                 : Spanish\nEncoder\t\t\t\t\t : Fastbet99\n\nScreenshots\n &lt;a href=&quot;\nhttp://lookpic.com/O/i2/1299/q9sAMwH0.jpeg&quot; rel=&quot;nofollow&quot; target=&quot;_NEW&quot;&gt;\nhttp://lookpic.com/O/i2/1299/q9sAMwH0.jpeg&lt;/a&gt;\n\nStairway To heaven - Help People With Keep Seed As Long You Can","torrent":{"xt":"urn:btih:0377714570fe77cdcebb122069c7b2783ab67d2e","amp;dn":"No.One.Lives.2012.480p.BRRip.x264-Fastbet99","amp;tr":["udp%3A%2F%2Ftracker.openbittorrent.com%3A80","udp%3A%2F%2Fopen.demonii.com%3A1337","udp%3A%2F%2Ftracker.coppersurfer.tk%3A6969","udp%3A%2F%2Fexodus.desync.com%3A6969"],"infoHash":"0377714570fe77cdcebb122069c7b2783ab67d2e","infoHashBuffer":{"type":"Buffer","data":[3,119,113,69,112,254,119,205,206,187,18,32,105,199,178,120,58,182,125,46]},"announce":[],"urlList":[]}}